<?xml version="1.0" encoding="UTF-8"?>
<!DOCTYPE svg PUBLIC "-//W3C//DTD SVG 1.1//EN" "http://www.w3.org/Graphics/SVG/1.1/DTD/svg11.dtd">
<!-- Creator: CorelDRAW -->
<svg xmlns="http://www.w3.org/2000/svg" xml:space="preserve" width="180mm" height="180mm" version="1.1" style="shape-rendering:geometricPrecision; text-rendering:geometricPrecision; image-rendering:optimizeQuality; fill-rule:evenodd; clip-rule:evenodd"
viewBox="0 0 18000 18000"
 xmlns:xlink="http://www.w3.org/1999/xlink"
 xmlns:xodm="http://www.corel.com/coreldraw/odm/2003">
 <defs>
  <style type="text/css">
   <![CDATA[
    .str0 {stroke:#2B2A29;stroke-width:20;stroke-miterlimit:22.9256}
    .fil1 {fill:none}
    .fil4 {fill:#FEFEFE}
    .fil0 {fill:black}
    .fil2 {fill:#FEFEFE;fill-rule:nonzero}
    .fil3 {fill:#B92B5F;fill-rule:nonzero}
   ]]>
  </style>
 </defs>
 <g id="Layer_x0020_1">
  <metadata id="CorelCorpID_0Corel-Layer"/>
  <rect class="fil0 str0" x="-0.07" y="0.07" width="18000" height="18000"/>
  <circle class="fil1" cx="8999.93" cy="9000.07" r="5500"/>
  <path class="fil2" d="M3965.31 6483.58l36.62 -182.24c2.88,-14.41 2.8,-26.69 -0.22,-36.83 -2.59,-10.15 -11.13,-19.84 -25.14,-28.64l-997.69 -632.15c-12.75,-8.39 -24.63,-10.86 -35.62,-8.68 -10.57,2.6 -21.12,7.73 -31.66,15.42l-149.21 110.94 -82.01 -52.02 425.76 -671.78c46.57,-73.09 97.43,-136.89 152.99,-191.4 55.55,-54.93 114.16,-95.91 175.81,-123.79 61.64,-27.46 125.91,-39.69 193.25,-35.85 66.91,3.85 135.63,28 205.32,72.05 73.51,46.97 132.25,100.4 176.21,161.1 43.95,60.71 72.69,125.31 86.64,193.81 13.52,68.5 12.66,138.36 -2.16,210.41 -14.82,72.05 -44.04,142.5 -87.67,210.92 -10.07,16.15 -23.1,32.73 -39.07,50.6 -16.41,17.88 -34.09,34.91 -53.47,51.53 -19.38,16.63 -39.61,32.41 -60.26,46.93 -20.66,14.09 -40.49,25.63 -59.49,34.21l382.42 242.46c13.6,8.81 26.74,11.7 38.99,8.66 12.27,-3.03 23.24,-8.6 32.51,-16.7l154.66 -119.86 82.01 52.01 -437.93 690.91 -81.59 -52.02zm-171.89 -1016.7c19.72,-31.44 32.25,-61.58 37.58,-90.81 4.91,-29.25 5.17,-56.34 0.79,-82.14 -4.81,-25.79 -13.42,-49.87 -25.83,-72.24 -12.4,-22.78 -26.49,-43.03 -42.69,-61.13 -16.19,-18.53 -32.37,-34.11 -48.95,-47.13 -16.6,-13.45 -31.47,-23.95 -45.07,-32.76 -36.55,-23.07 -74.75,-41.47 -113.78,-54.79 -39.44,-13.31 -78.41,-17.75 -116.92,-13.72 -38.5,4.04 -76.51,18.23 -114.05,42.58 -37.11,24.35 -72.03,62.23 -104.33,112.8l-66.28 104.95 528.17 334.75c8,-7.67 16.83,-16.62 26.52,-27.25 9.66,-11.07 19.34,-22.98 29.85,-35.32 10.08,-12.76 19.74,-25.94 28.97,-39.12 9.25,-13.17 18.06,-25.92 26.02,-38.67z"/>
  <path id="_1" class="fil2" d="M4887.82 5114.64l95.22 -159.87c5.9,-10.18 9.69,-21.19 10.92,-33.05 1.23,-11.44 -3.04,-23.7 -13.23,-36.79l-731.19 -927.15c-9.35,-11.83 -19.53,-18.15 -31.39,-19.81 -11.43,-1.24 -22.86,0.07 -34.27,4.33l-177.22 55.12 -60.34 -76.03 637.39 -502.62c65.05,-51.4 125.47,-91.8 181.69,-121.58 55.79,-29.8 107.38,-51.11 154.76,-63.1 46.96,-12.41 90.12,-17.61 129.5,-15.61 38.95,2.43 74.53,10.37 106.74,23.83 31.79,13.03 61.05,30.73 86.52,52.25 25.46,21.52 48.38,45.15 68.77,70.92 38.67,49 65.05,98.46 79.16,147.52 14.11,49.49 19.33,96.89 16.49,143.04 -3.25,45.73 -12.44,89.78 -28.41,131.32 -15.97,41.95 -34.07,79.26 -54.71,112.76l641.08 200.96c8.05,2.09 17.36,4.18 27.11,6.7 10.16,2.08 20.33,3.32 30.48,3.72 10.59,0.39 20.76,0.36 30.92,-0.51 10.57,-0.89 19.46,-3.03 27.49,-6.44l168.73 -64.4 60.33 76.04 -324.82 256.19c-30.41,23.78 -56.19,40.38 -77.33,49.74 -21.57,8.96 -42.29,13.68 -62.61,13.73 -19.9,0.06 -40.66,-3.7 -62.68,-11.25 -22.05,-7.99 -48.32,-16.8 -79.25,-26.87l-593.23 -198.55 -144.6 64.33 308.03 390.29c10.2,13.1 21.22,20.26 32.66,21.49 11.43,1.25 23.71,-0.06 36.82,-4.33l180.17 -57.67 59.9 76.04 -635.68 501.34 -59.92 -76.03zm121.04 -1059.1c36.75,-28.9 62.9,-60.3 78.89,-94.64 15.99,-34.33 24.36,-68.64 24.68,-103.36 0.32,-34.71 -6.12,-69.41 -19.77,-103.67 -13.64,-34.24 -31.93,-65.52 -54.88,-94.66 -60.75,-77.3 -124.79,-118.18 -191.69,-123.07 -66.9,-4.47 -137.52,22.4 -211.86,81.03l-109.83 86.68 348.39 441.81c5.92,-2.55 14.8,-7.66 26.63,-15.31 12.25,-7.65 25.36,-16.16 39.3,-25.09 13.95,-8.92 27.47,-18.28 40.14,-27.63 13.1,-8.93 22.81,-16.57 30,-22.09z"/>
  <path id="_2" class="fil2" d="M6355.95 4027.37l138.21 -124.56c9.81,-8.39 16.66,-18.07 21.41,-28.61 4.32,-10.55 3.58,-23.68 -2.64,-38.97l-423.81 -1103c-5.39,-14.02 -13.35,-23.4 -23.9,-28.14 -10.53,-4.75 -21.96,-6.53 -33.81,-6.21l-186.27 0.12 -34.81 -90.46 1311.53 -503.77 162.82 423.45 -140.15 53.43 -140.71 -182.8c-8.37,-11.08 -17.2,-19.19 -26.89,-23.51 -9.7,-4.31 -20.72,-3.98 -32.61,0.57l-516.03 198.46 178.14 463.36 284.14 -109.38c14.87,-5.8 23.82,-12.49 27.27,-20.51 3.45,-8.44 4.41,-20.28 3.27,-35.95l-6.48 -187.18 116.8 -44.75 222.05 578.05 -116.79 45.16 -120.31 -142.4c-7.96,-10.66 -16.35,-18.76 -25.21,-23.5 -8.83,-5.15 -20.69,-4.83 -35.13,0.55l-284.57 109.37 200.93 522.41 597.16 -229.51c10.62,-4.15 18.3,-11.28 23.47,-21.82 5.17,-10.54 6.96,-21.95 5.37,-35.1l-29.19 -254.67 140.17 -53.86 172.75 449.78 -1391.38 534.43 -34.8 -90.48z"/>
  <path id="_3" class="fil2" d="M8011.37 3378.75l176.23 -68.48c11.46,-4.56 21.67,-10.83 30.19,-18.38 8.54,-7.97 12.86,-19.38 13.4,-35.46l40.12 -1173.62c0.53,-14.81 -3.19,-26.7 -11.17,-35.22 -7.97,-8.54 -17.65,-14.97 -28.63,-19.29l-171.73 -72.46 3.3 -96.92 719.5 24.68 289.03 931.94 48.4 198.09 18.2 0.56 416.77 -1104.2 709.33 23.76 -3.3 97.34 -173.62 60.45c-12.31,4.14 -23.36,9.98 -33.16,17.52 -9.37,7.55 -14.54,18.93 -15.09,34.18l-40.15 1180.39c-0.56,16.51 3.58,28.82 12.41,37.77 8.4,8.54 19.35,14.98 32.01,20.16l169.19 72.44 -3.29 96.92 -802.03 -27.45 3.3 -96.92 172.77 -60.88c12.74,-4.56 23.8,-10.82 32.75,-18.37 8.95,-7.55 13.7,-19.79 14.25,-36.3l38.46 -1125.38 -20.32 -0.57 -62.31 172.66 -353 909.11 -115.4 246.76 -205.26 -6.69 -366.23 -1184.43 -48.14 -177.75 -20.31 -0.59 -37.99 1119.45c-0.55,16.51 3.58,28.82 11.99,36.5 7.98,8.11 18.09,14.54 29.05,20.55l168.71 80.07 -3.29 96.91 -638.24 -21.5 3.3 -97.35z"/>
  <path id="_4" class="fil2" d="M10442.55 3578.93l193.44 -5.69c14.39,-0.93 26.65,-3.52 36.37,-8.66 9.28,-5.13 16.84,-15.75 22.26,-31.44l372.91 -1121.31c4.57,-14.41 4.09,-26.68 -1.47,-37.24 -5.56,-10.55 -13.23,-19.41 -22.58,-26.55l-151.35 -120.69 30.41 -92.03 782.02 259.99 -30.83 92.03 -193.44 6.12c-12.7,-0.36 -24.12,1.81 -35.1,6.95 -10.97,5.15 -18.55,14.92 -23.54,29.35l-372.49 1121.28c-5.42,15.71 -5.35,28.82 -0.21,39.38 5.14,10.56 13.22,19.83 23.86,28.24l151.35 120.26 -30.41 92.03 -782.03 -259.99 30.83 -92.03z"/>
  <path id="_5" class="fil2" d="M12088.09 4505.91c-90.54,-65.43 -161.59,-133.68 -213.14,-204.33 -51.57,-71.07 -86.61,-141.6 -105.15,-212.01 -18.12,-70.41 -20.16,-139.01 -6.55,-205.37 14.03,-66.79 41.57,-128.39 82.63,-185.25l544.8 -752.13c8.98,-12.21 11.61,-24.47 9.16,-36.77 -2.88,-11.87 -7.88,-23.34 -15.42,-33.55l-99.22 -153.56 56.88 -78.74 652.75 472.54 -56.88 78.75 -178.73 -47.45c-10.98,-3.04 -22.41,-3.96 -34.7,-2.36 -11.85,1.18 -22.48,7.88 -31.47,20.09l-481.95 665.8c-17.1,23.59 -33.37,49.29 -48.39,76.27 -15.01,27.41 -27.07,55.7 -36.6,85.68 -9.53,29.57 -15.26,60 -16.75,90.9 -1.5,30.89 2.93,62.67 12.85,94.92 9.93,32.66 27.05,64.55 51.8,96.05 24.32,31.93 57.54,62.65 99.66,93.01 41.26,30.36 81.32,52.25 119.75,66.08 38,13.82 75.2,20.86 110.33,21.53 35.56,0.27 69.04,-4.58 100.45,-14.5 31.39,-10.35 60.7,-23.7 87.5,-41.28 26.79,-17.16 51.5,-36.87 74.1,-60 22.6,-22.69 42.67,-46.25 60.2,-70.26l474.68 -655.7c8.97,-12.21 12.02,-23.62 9.57,-35.07 -2.88,-11.03 -7.47,-21.64 -13.74,-32.27l-95.36 -160.72 56.88 -78.75 518.42 375.46 -56.88 78.75 -183.44 -41.12c-11.83,-3.05 -23.68,-3.99 -35.11,-2.8 -11.45,1.19 -21.22,7.47 -30.21,19.68l-512.3 707.49c-39.34,54.33 -83.26,97.19 -131.76,129.01 -48.91,31.83 -99.45,54.32 -152.04,67.06 -52.59,13.16 -105.97,18.28 -160.14,15.77 -54.59,-2.52 -107.02,-10.94 -158.58,-24.86 -51.12,-13.92 -99.66,-32.05 -146.07,-54.4 -45.99,-21.93 -86.88,-45.93 -121.83,-71.59z"/>
  <path id="_6" class="fil2" d="M13103.68 5034.14l155.59 107.16c10.55,6.41 21.52,11.13 32.52,14.16 10.99,2.61 23.29,-0.29 36.88,-8.68l993 -626.66c12.75,-8.4 20.43,-18.09 23.03,-29.51 2.61,-11.41 2.25,-22.85 -0.64,-34.29l-36.19 -182.68 82 -51.59 384.23 608.47 -608.56 763.12 -136.36 151.6 9.66 15.3 1148.01 -276.52 378.78 600.4 -82.01 51.59 -147.96 -109.24c-10.11,-7.67 -21.08,-13.66 -32.92,-17.12 -11.82,-3.88 -24.11,-1.83 -36.44,6.14l-998.95 630.87c-14.03,8.81 -22.13,19.35 -24.32,31.19 -2.19,12.26 -1.83,24.54 1.06,37.68l35.34 180.55 -82 52.01 -428.27 -678.15 82.01 -52.01 147.1 108.38c11.39,8.11 22.79,13.68 34.2,16.72 10.99,3.01 23.71,0.13 37.73,-8.68l952.22 -601.09 -10.91 -16.99 -178.07 45.53 -949.99 219.66 -269.08 42.88 -109.47 -173.36 773.17 -968.75 120.2 -139.84 -10.91 -17 -947.54 598.16c-14.02,8.81 -21.7,18.92 -23.46,29.92 -1.76,11.41 -1.83,23.27 -0.21,35.56l28.56 184.73 -82.01 52.02 -341.02 -540.05 82 -51.59z"/>
  <circle class="fil1" cx="8999.93" cy="9000.07" r="3000"/>
  <g id="_1554539477216">
   <path class="fil3" d="M7466.25 9344.49c488.54,-10.95 1056.45,-177.82 1687.46,-495.73 507.15,-255.57 1017.57,-344.79 1467.98,-423.56 460.16,-80.73 929.49,-163.92 1227.65,-442.03 -115.5,1099.56 -1470.7,636.41 -2859.19,1335.76 -1708.89,860.87 -2428.8,556.37 -2506.08,-407.04 237.03,365.18 413.95,445.33 982.18,432.6z"/>
   <path class="fil3" d="M10257.84 7424.78c-363.12,52.28 -774.55,111.44 -1198.29,285.95 -441.55,181.73 -832.87,277.3 -1163.16,284.01l0 0c-293.96,5.9 -529.62,-61.97 -681.73,-196.05 -147.35,-129.97 -214.61,-318.75 -194.71,-546.1 60.04,-685.92 1054.06,-1262.98 2215.7,-1286.31 1307.26,-26.27 2025.98,311.86 1972.07,927.7 -34.83,399.02 -398.87,451.56 -949.88,530.8zm-1849.08 -953.54c-327.48,6.57 -978.53,236.36 -937.37,718.15 44.22,257.72 234.36,350.19 561.83,343.61 646.69,-15.78 1139.53,-274.07 1156.72,-470.38 17.18,-196.24 -42.38,-576.47 -781.18,-591.38z"/>
   <path class="fil3" d="M9049 8443.04c-1860.13,937.03 -2848.09,344.47 -2758.25,-800.76 89.84,-1145.24 1427.74,-2102.19 2988.72,-2137.18 1560.85,-34.88 2722.58,422.27 2632.73,1567.61 -89.85,1145.34 -1459.8,663.49 -2863.2,1370.33zm217.9 -2819.96c-1434.66,32.16 -2662.93,838.14 -2738.13,1796.78 -25.51,325.22 63.01,597.43 255.56,787.16 200.7,197.44 507.56,297.41 887.93,288.89l0 0c408.6,-9.16 888.73,-139.26 1426.95,-386.52 481.58,-221.12 956.3,-297.36 1375.26,-364.68 658.79,-105.96 1179.08,-189.57 1227.09,-801.56 68.89,-875.18 -818.65,-1356.28 -2434.66,-1320.07z"/>
   <ellipse class="fil2" transform="matrix(-0.335643 0.0561833 0.0116322 0.234403 8282.28 6974.23)" rx="1312.19" ry="1015.59"/>
  </g>
  <g id="_1554539478416">
   <path class="fil2" d="M3544.96 14213.42l289.28 -124.17c19.05,-9.18 35.28,-19.76 49.39,-33.17 13.41,-12.7 20.46,-32.45 20.46,-59.26l0 -1958.62c0,-25.4 -7.05,-44.45 -20.46,-58.56 -14.11,-14.11 -30.34,-23.99 -49.39,-30.34l-289.28 -110.77 0 -160.87 1200.15 0 534.11 1536.7 92.43 326.67 30.34 0 632.17 -1863.37 1183.22 0 0 160.87 -285.75 110.77c-20.46,7.76 -38.1,18.34 -53.62,31.04 -16.23,13.41 -23.99,32.46 -23.99,57.86l0 1969.91c0,27.51 7.76,48.68 22.58,62.09 15.52,14.11 33.16,24.69 55.03,32.45l285.75 110.77 0 160.87 -1337.73 0 0 -160.87 284.33 -110.77c21.17,-9.17 38.81,-19.75 53.63,-33.16 14.11,-13.41 21.16,-33.87 21.16,-61.38l0 -1877.48 -33.86 0 -93.84 292.09 -536.22 1533.88 -178.51 417.69 -342.9 0 -677.33 -1952.27 -90.31 -292.81 -33.87 0 0 1867.61c0,27.51 7.76,47.98 21.87,60.68 14.11,11.99 31.05,23.28 50.1,31.75l285.75 124.17 0 160.87 -1064.69 0 0 -160.87z"/>
   <path class="fil2" d="M12862.42 14213.34l308.32 -112.89c23.99,-7.76 42.34,-18.34 54.33,-31.75 12.7,-14.11 19.05,-34.57 19.05,-62.08l0 -2020.01 -549.62 0c-22.58,0 -40.22,5.65 -52.22,17.64 -12.7,12 -21.87,29.63 -28.22,53.62l-109.36 407.11 -246.24 0 0 -787.4 2596.44 0 0 787.4 -248.35 0 -107.25 -407.11c-6.35,-22.57 -16.22,-40.21 -30.33,-52.21 -14.12,-12.7 -30.34,-19.05 -48.69,-19.05l-553.15 0 0 2020.01c0,27.51 7.05,48.68 22.58,62.79 14.81,14.82 31.75,24.69 50.8,31.04l310.44 112.89 0 160.87 -1388.53 0 0 -160.87z"/>
   <path class="fil2" d="M7542.05 14240.25l241.06 -92.31c17.05,-6.46 30.58,-15.28 41.75,-27.04 11.17,-11.17 16.46,-28.81 16.46,-51.74l0 -1641.6c0,-21.16 -5.88,-37.04 -17.05,-48.8 -11.76,-11.76 -25.28,-19.99 -41.16,-25.28l-241.06 -92.31 0 -134.06 1952.04 0 0 631.48 -208.73 0 -91.13 -307.51c-5.3,-18.81 -12.94,-33.51 -23.52,-43.51 -10,-10.58 -24.11,-15.87 -42.34,-15.87l-767.88 0 0 687.91 423.34 0c21.75,0 37.04,-4.7 45.27,-13.52 8.23,-8.82 15.88,-23.52 21.76,-44.1l84.66 -245.76 174.04 0 0 860.77 -174.04 0 -84.66 -244c-5.3,-17.64 -12.35,-31.75 -21.17,-42.92 -8.82,-11.17 -24.11,-16.47 -45.86,-16.47l-423.34 0 0 776.12 889 0c15.29,0 29.4,-5.3 41.16,-16.47 12.35,-11.17 20.58,-25.28 24.7,-43.51l89.37 -345.72 208.14 0 0 670.28 -2070.81 0 0 -134.06z"/>
   <path class="fil2" d="M9943.75 14240.25l161.1 -75.25c37.63,-17.06 65.26,-45.28 81.73,-86.44l637.94 -1612.19 189.91 -374.53 366.89 0 768.47 1993.19c7.05,18.82 17.05,35.87 30.57,51.74 12.94,15.88 27.63,26.46 44.69,32.93l167.57 70.55 0 134.06 -1018.95 0 0 -134.06 263.41 -94.66 -197.55 -490.95 -789.05 0 -186.38 481.54 266.34 104.07 0 134.06 -786.69 0 0 -134.06zm1397 -839.61l-213.43 -547.98 -62.91 -211.08 -26.46 0 -286.93 759.06 589.73 0z"/>
  </g>
  <path class="fil2" d="M5775.87 15648.13l0 87.82c-23.12,15.83 -49.79,32.16 -79.72,48.98 -29.93,17.07 -62.53,32.41 -97.49,46.51 -35.27,14.1 -72.31,25.73 -112.02,34.63 -39.41,9.15 -80.31,13.61 -122.38,13.61 -83.86,0 -160.02,-10.89 -229.07,-32.9 -69.05,-22.02 -128.01,-54.18 -176.61,-95.99 -48.9,-42.05 -86.54,-93.51 -113.5,-154.6 -26.97,-60.86 -40.31,-130.12 -40.31,-208.05 0,-75.2 14.23,-143.47 42.39,-204.58 28.15,-61.1 67.26,-113.3 117.34,-156.34 50.08,-43.04 109.35,-76.19 178.1,-99.69 68.75,-23.25 143.72,-34.88 224.92,-34.88 28.74,0 60.75,1.49 95.42,4.7 34.96,2.97 69.64,7.17 104.01,12.12 34.37,5.19 67.56,10.39 99.57,16.33 32,5.68 59.26,10.88 82.67,15.83l0 241.93 -92.45 0 -30.82 -135.8c-1.18,-6.68 -5.63,-12.38 -13.63,-17.32 -7.7,-4.95 -15.12,-8.91 -21.93,-11.88 -17.49,-7.17 -35.26,-13.61 -53.93,-19.29 -18.38,-5.69 -37.34,-10.64 -57.2,-14.59 -19.85,-3.96 -40,-6.93 -60.75,-8.92 -21.04,-1.97 -42.66,-2.96 -65.19,-2.96 -53.93,0 -103.12,7.92 -148.17,23.75 -45.03,15.83 -83.86,39.82 -115.86,71.98 -32.01,32.16 -57.19,72.24 -74.97,120.47 -18.09,48 -26.97,104.64 -26.97,169.71 0,137.78 36.45,241.68 109.05,311.93 72.6,70.01 177.8,105.14 315.3,105.14 39.12,0 74.67,-4.7 107.57,-13.85 32.6,-9.15 62.23,-20.54 89.2,-33.89 26.96,-13.36 50.97,-27.46 72.01,-42.06 21.03,-14.59 39.41,-27.21 55.11,-37.85l40.31 0zm702.61 233.03c-88.01,0 -165.66,-11.62 -233.52,-34.63 -67.56,-23 -124.75,-56.16 -171.28,-99.45 -46.81,-43.04 -82.08,-95.23 -106.09,-156.34 -24,-61.1 -35.85,-129.87 -35.85,-205.81 0,-71.74 12.44,-137.79 37.63,-198.15 24.9,-60.11 60.75,-112.31 107.87,-156.34 46.82,-44.04 104.31,-78.18 172.17,-102.66 67.86,-24.49 144.91,-36.62 230.84,-36.62 92.75,0 173.36,12.62 242.11,37.6 68.75,24.99 125.64,59.62 170.68,103.9 45.05,44.28 78.54,96.48 100.46,156.84 21.64,60.36 32.6,125.42 32.6,195.43 0,41.8 -4.45,82.87 -13.63,123.69 -9.18,40.57 -23.41,79.4 -42.67,116.01 -19.26,36.86 -43.56,70.75 -73.2,102.17 -29.63,31.17 -64.6,58.13 -105.19,81.14 -40.6,22.75 -86.83,40.82 -138.69,53.68 -51.86,13.11 -109.94,19.54 -174.24,19.54zm14.22 -77.18c58.08,0 109.05,-9.65 152.91,-29.19 44.15,-19.29 80.6,-46.51 109.94,-81.14 29.33,-34.88 51.27,-76.69 66.08,-125.42 14.52,-48.73 21.93,-102.41 21.93,-161.04 0,-66.79 -7.7,-127.4 -23.12,-181.58 -15.7,-54.41 -39.11,-100.43 -70.52,-138.52 -31.12,-38.1 -70.82,-67.54 -118.53,-88.07 -47.72,-20.54 -103.43,-30.68 -167.74,-30.68 -61.63,0 -114.67,10.39 -158.53,31.17 -43.86,20.54 -80.31,48.73 -108.76,84.61 -28.45,35.62 -49.19,77.43 -62.22,125.17 -13.34,47.74 -19.86,98.46 -19.86,151.64 0,66.54 7.71,127.15 22.82,181.58 15.41,54.41 38.52,100.92 69.64,139.76 31.11,38.84 70.52,68.77 118.23,90.05 47.71,21.03 103.42,31.66 167.73,31.66zm704.09 5.94l121.79 -36.86c8.3,-2.23 15.41,-5.94 21.33,-10.88 5.64,-5.2 8.6,-12.37 8.6,-21.53l0 -714.42c0,-9.15 -2.96,-16.33 -8.6,-21.03 -5.92,-4.94 -13.03,-8.41 -21.33,-10.63l-121.79 -33.64 0 -47.5 406.86 0 264.92 624.37 39.41 114.79 12.75 0 305.82 -739.16 401.24 0 0 47.5 -120.02 33.64c-8.3,2.22 -15.7,5.94 -22.23,10.88 -6.22,5.2 -9.48,12.13 -9.48,20.78l0 718.38c0,9.65 2.96,16.82 8.89,21.77 5.63,4.7 13.33,8.66 22.82,11.13l120.02 32.41 0 48.98 -467.62 0 0 -48.98 120.02 -32.41c8.88,-2.22 16.58,-5.69 22.52,-10.88 5.92,-4.95 9.18,-12.37 9.18,-22.02l0 -759.2 -15.12 0 -37.03 97.47 -269.67 629.57 -74.97 146.45 -80.6 0 -329.53 -775.28 -36.45 -98.21 -12.44 0 0 755.24c0,9.65 2.67,16.82 8.29,21.53 5.34,4.45 12.75,8.15 21.64,10.88l119.42 36.86 0 48.98 -408.64 0 0 -48.98zm1606.42 0l121.8 -32.41c8.3,-2.22 15.41,-5.69 21.33,-10.88 5.63,-4.95 8.6,-12.37 8.6,-22.02l0 -718.38c0,-9.15 -2.97,-16.33 -8.6,-21.03 -5.92,-4.94 -13.03,-8.41 -21.33,-10.63l-121.8 -33.64 0 -47.5 456.65 0c58.67,0 113.21,4.94 164.17,14.59 50.67,9.65 95.12,24.74 133.36,45.52 38.22,20.53 68.15,47.25 89.78,79.65 21.64,32.41 32.3,71.5 32.3,116.77 0,47.74 -9.48,91.03 -28.45,129.37 -18.96,38.6 -45.33,71.25 -79.41,97.96 -33.78,26.97 -74.08,47.5 -120.91,61.6 -46.52,14.35 -97.79,21.52 -153.5,21.52 -12.74,0 -26.97,-1.23 -42.38,-3.71 -15.4,-2.47 -31.11,-5.69 -47.11,-9.89 -15.71,-4.2 -31.11,-8.91 -46.52,-14.59 -15.41,-5.45 -28.75,-11.39 -40.3,-17.57l0 309.96c0,9.65 2.96,17.07 9.18,22.02 5.93,5.19 13.33,8.66 21.63,10.88l128.91 32.41 0 48.98 -477.4 0 0 -48.98zm317.68 -426.73c8.89,1.74 19.85,3.47 32.3,4.95 12.74,1.48 25.77,2.72 39.7,3.47 13.63,0.98 27.56,1.73 41.78,1.97 14.23,0.5 27.56,0.75 40.3,0.75 33.2,0 61.65,-3.47 85.65,-10.64 24,-6.93 44.45,-16.08 61.34,-27.71 16.89,-11.37 30.52,-24.24 40.59,-38.84 10.38,-14.59 18.38,-28.94 23.72,-43.04 5.62,-14.35 9.18,-27.95 11.26,-40.57 1.77,-12.86 2.66,-23.5 2.66,-32.4 0,-27.21 -4.15,-53.44 -12.15,-78.92 -8.3,-25.23 -22.52,-47.49 -43.26,-66.79 -20.45,-19.29 -48.6,-34.63 -84.16,-46.26 -35.56,-11.37 -80.31,-17.07 -134.54,-17.07l-105.19 0 0 391.1zm557.69 426.73l80.6 -29.68c9.49,-3.47 17.79,-8.67 24.9,-15.59 7.11,-6.68 12.44,-13.61 15.41,-20.78l321.82 -687.46 93.04 -157.83 89.5 0 398.86 847.27c3.86,7.42 8.89,14.84 15.41,21.76 6.82,7.18 14.22,11.88 22.52,14.6l83.86 27.71 0 48.98 -418.71 0 0 -48.98 132.75 -38.35 -113.79 -243.66 -418.13 0 -107.57 240.45 134.54 41.56 0 48.98 -355.01 0 0 -48.98zm707.35 -374.03l-130.39 -269.4 -30.81 -89.05 -13.34 0 -165.94 358.45 340.48 0zm524.8 374.03l121.8 -36.86c8.3,-2.73 15.41,-6.43 21.33,-11.38 5.63,-4.7 8.6,-11.87 8.6,-21.03l0 -713.68c0,-9.15 -2.97,-16.32 -8.6,-21.27 -5.92,-4.7 -13.03,-8.16 -21.33,-10.39l-126.54 -34.38 0 -47.5 324.78 0 548.52 652.08 60.75 85.1 12.74 0 0 -621.16c0,-8.66 -3.26,-15.34 -9.48,-20.04 -6.52,-4.7 -13.93,-7.92 -22.23,-10.14l-120.01 -38.34 0 -47.5 408.35 0 0 47.5 -120.91 38.34c-7.41,1.98 -14.22,5.44 -20.74,10.14 -6.82,4.7 -10.07,11.38 -10.07,20.04l0 682.51 -23.71 152.87 -93.94 0 -596.52 -706.26 -61.05 -86.33 -12.45 0 0 668.41c0,9.65 2.97,16.82 9.49,21.77 6.22,4.95 13.04,8.41 20.45,10.64l119.42 36.86 0 48.98 -408.65 0 0 -48.98zm1577.98 0l129.5 -32.41c9.48,-2.22 17.18,-5.69 22.52,-10.88 5.64,-4.95 8.3,-12.37 8.3,-22.02l0 -240.45 -321.53 -479.91c-4.74,-6.43 -10.36,-13.11 -16.59,-19.79 -6.22,-6.67 -13.92,-11.38 -22.82,-14.59l-87.71 -28.94 0 -47.5 418.72 0 0 47.5 -130.39 38.83 227.59 327.53 43.56 81.39 12.44 0 268.78 -404.71 -128.91 -43.04 0 -47.5 355.02 0 0 47.5 -84.76 30.91c-7.7,3.22 -15.41,7.92 -22.52,14.6 -7.11,6.68 -13.04,13.11 -17.78,19.79l-326.27 473.97 0 244.41c0,9.65 2.68,17.07 8.3,22.02 5.63,5.19 12.45,8.66 21.04,10.88l130.98 32.41 0 48.98 -487.47 0 0 -48.98z"/>
  <polygon class="fil4" points="2921.3,8033.27 3156.3,8760.47 3921.3,8759 3301.54,9206.97 3539.33,9933.27 2921.3,9482.92 2303.27,9933.27 2541.06,9206.97 1921.3,8759 2686.3,8760.47 "/>
  <polygon class="fil4" points="15102.02,8053.49 15337.02,8780.69 16102.02,8779.22 15482.26,9227.19 15720.05,9953.49 15102.02,9503.14 14483.99,9953.49 14721.78,9227.19 14102.02,8779.22 14867.02,8780.69 "/>
 </g>
</svg>
